<svg width="719" height="527" viewBox="0 0 719 527" fill="none" xmlns="http://www.w3.org/2000/svg">
<path d="M472.923 241.076C463.931 232.084 463.931 217.504 472.923 208.512C481.915 199.52 496.495 199.52 505.487 208.512C514.479 217.504 514.479 232.084 505.487 241.076C496.495 250.068 481.915 250.068 472.923 241.076Z" fill="white"/>
<path fill-rule="evenodd" clip-rule="evenodd" d="M566.718 56.472C578.984 62.0533 590.766 69.0454 601.814 77.453L624.652 41.2641C649.432 58.7023 659.333 68.3938 676.978 93.59L640.562 116.571L640.225 116.908C648.236 128.051 654.855 139.885 660.078 152.174L660.989 151.93L699.097 131.885C711.839 159.376 715.57 172.719 718.25 203.363L675.224 205.056L673.791 205.44C675.159 218.747 675.088 232.172 673.571 245.465L674.198 245.634L718.241 247.599C715.562 278.241 711.829 291.584 699.089 319.077L659.965 298.758L659.271 298.573C653.983 310.636 647.341 322.251 639.346 333.183L639.817 333.654L676.976 357.378C659.333 382.576 649.429 392.266 624.65 409.704L600.926 372.545L600.672 372.29C589.751 380.467 578.118 387.252 566.03 392.693L586.349 431.817C558.471 444.817 545.05 448.256 514.871 450.969L512.934 407.551C499.536 409.2 485.99 409.382 472.56 408.094L470.644 450.97C440 448.289 426.659 444.555 399.165 431.817L429.826 397.346L267.281 247.59L307 245.816C305.425 232.237 305.356 218.518 306.793 204.928L267.273 203.371C269.986 173.192 273.425 159.771 286.422 131.895L321.292 150.236C326.741 137.819 333.624 125.881 341.942 114.671L308.538 93.5917C325.976 68.8134 335.666 58.9089 360.864 41.2658L382.111 74.9314C393.395 66.7475 405.395 59.9989 417.861 54.6874L399.165 19.153C426.657 6.41265 440.001 2.68031 470.643 0.000350662L472.249 40.8178C485.885 39.4878 499.64 39.6707 513.243 41.368L514.87 0C545.049 2.71276 558.471 6.15179 586.349 19.1526L566.718 56.472ZM520.015 166.407L562.744 123.678L591.735 152.669L548.545 195.86C560.549 220.476 556.326 251.011 535.874 271.463C510.099 297.238 468.311 297.238 442.536 271.463C416.761 245.688 416.761 203.9 442.536 178.125C463.511 157.15 495.09 153.244 520.015 166.407Z" fill="white"/>
<path d="M228.042 277.649L364.16 401.039L227.335 526.55L227.688 466.8L134.704 467.86L177.13 335.632L228.749 334.924L228.042 277.649Z" fill="white"/>
<path d="M135.764 334.571L121.976 378.765L84.1457 376.997L83.4386 334.571H135.764Z" fill="white"/>
<path d="M42.4264 375.583L43.4871 336.339L1.76777 334.924L0.353553 376.644L42.4264 375.583Z" fill="white"/>
<path d="M106.42 426.141L94.3988 469.275L0 466.8L1.06066 424.727L106.42 426.141Z" fill="white"/>
</svg>
