<svg width="407" height="386" viewBox="0 0 407 386" fill="none" xmlns="http://www.w3.org/2000/svg">
<path d="M371.999 121.941L332.999 88.4407L309.999 30.9407C303.445 16.4661 276.984 29.049 282.999 42.4407L306.999 104.441L341.999 134.941L334.499 131.441C330.777 128.756 330.718 163.171 331.499 240.441L313.999 286.44L331.499 374.44C337.351 392.998 369.274 383.231 364.999 368.44L348.999 290.94L366.499 242.441H371.999V370.94C372.27 390.48 406.727 388.639 406.499 370.94V138.941C406.499 126.441 395.937 120.069 371.999 121.941Z" fill="white"/>
<path d="M34.5011 120.359L73.5011 86.8586L87.9989 28.4407C94.5526 13.9661 121.014 26.549 114.999 39.9407L99.5011 102.859L64.5011 133.359L72.0011 129.859C75.7229 127.174 75.7822 161.589 75.0011 238.858L92.5011 284.859L98.4988 375.359C92.6465 393.916 60.7235 384.15 64.9989 369.359L57.5011 289.359L40.0011 240.858H34.5011V369.359C34.2303 388.898 -0.226937 387.057 0.00112714 369.359V137.359C0.00112714 124.859 10.5631 118.487 34.5011 120.359Z" fill="white"/>
<path d="M160.767 111.586V218.475L152.419 357.097C155.758 375.468 175.794 378.809 185.811 362.107L194.16 220.145H200.838L209.186 362.107C217.535 377.139 237.57 375.468 244.249 362.107L235.901 218.475V111.586L287.66 83.1931C273.519 48.5566 265.342 26.4423 291.999 14.3873C290.329 -3.94995 265.954 -5.62335 264.285 14.3873V63.1824L225.883 84.8943L172.499 84.8943L132.383 63.1824V15.3873C132.383 0.379479 113.017 -6.29888 102.999 12.0778C127.169 19.3028 128.381 38.4319 114.017 86.5645L160.767 111.586Z" fill="white"/>
<path d="M227.999 47.9414C227.999 64.5099 214.344 77.9414 197.499 77.9414C180.654 77.9414 166.999 64.5099 166.999 47.9414C166.999 31.3729 180.654 17.9414 197.499 17.9414C214.344 17.9414 227.999 31.3729 227.999 47.9414Z" fill="white"/>
<path d="M397.769 81.3659C399.025 97.6161 387.086 111.791 371.102 113.027C368.604 113.22 366.154 113.085 363.795 112.659L339.9 80.9868C341.085 66.8563 352.185 55.2901 366.553 54.1794C382.537 52.9439 396.513 65.1157 397.769 81.3659Z" fill="white"/>
<path d="M9.27339 81.3659C8.01723 97.6161 19.9564 111.791 35.9402 113.027C38.4385 113.22 40.8878 113.085 43.2472 112.659L67.1418 80.9868C65.9569 66.8563 54.8571 55.2901 40.4891 54.1794C24.5053 52.9439 10.5295 65.1157 9.27339 81.3659Z" fill="white"/>
</svg>
