<svg width="359" height="645" viewBox="0 0 359 645" fill="none" xmlns="http://www.w3.org/2000/svg">
<g opacity="0.883">
<path fill-rule="evenodd" clip-rule="evenodd" d="M174.092 0C177.425 0 180.759 0 184.092 0C184.624 2.13013 185.457 4.13013 186.592 6C187.259 20 187.259 34 186.592 48C184.487 55.8102 180.153 57.4769 173.592 53C172.774 35.2597 172.94 17.593 174.092 0Z" fill="white"/>
<path fill-rule="evenodd" clip-rule="evenodd" d="M55.0924 49C58.1564 48.6437 60.8234 49.4771 63.0924 51.5C72.5924 61 82.0924 70.5 91.5924 80C96.2614 91.0027 92.7614 94.8361 81.0924 91.5C71.8574 81.2213 62.1914 71.388 52.0924 62C51.0074 58.727 50.8404 55.3936 51.5924 52C52.5774 50.6859 53.7444 49.6859 55.0924 49Z" fill="white"/>
<path fill-rule="evenodd" clip-rule="evenodd" d="M299.092 49C302.097 48.753 304.597 49.753 306.592 52C307.344 55.3936 307.177 58.727 306.092 62C295.993 71.388 286.327 81.2213 277.092 91.5C265.238 95.0153 261.738 91.182 266.592 80C277.016 69.0726 287.849 58.7393 299.092 49Z" fill="white"/>
<path fill-rule="evenodd" clip-rule="evenodd" d="M170.092 79C219.883 78.843 252.55 102.176 268.092 149C273.406 171.599 271.072 193.266 261.092 214C253.16 226.21 244.993 238.21 236.592 250C233.682 255.76 230.515 261.427 227.092 267C223.534 277.682 221.534 288.682 221.092 300C212.092 300 203.092 300 194.092 300C193.925 269.332 194.092 238.665 194.592 208C195.944 205.906 196.444 203.573 196.092 201C207.906 201.942 219.239 200.275 230.092 196C233.071 193.359 235.571 190.359 237.592 187C238.986 179.023 236.152 173.189 229.092 169.5C221.559 166.278 214.059 166.444 206.592 170C197.971 175.12 192.138 182.454 189.092 192C182.75 192.166 176.417 192 170.092 191.5C166.882 186.431 163.715 181.264 160.592 176C154.866 170.68 148.033 167.68 140.092 167C129.307 167.277 122.641 172.61 120.092 183C122.613 191.687 128.28 197.187 137.092 199.5C145.722 200.645 154.389 201.145 163.092 201C163.092 234 163.092 267 163.092 300C154.092 300 145.092 300 136.092 300C136.5 288.495 134.833 277.328 131.092 266.5C121.578 251.129 111.578 236.129 101.092 221.5C85.1394 194.384 82.8064 166.051 94.0924 136.5C109.378 104.027 134.711 84.86 170.092 79Z" fill="white"/>
<path fill-rule="evenodd" clip-rule="evenodd" d="M3.09241 171C19.7624 170.833 36.4294 171 53.0924 171.5C57.0444 175.751 57.0444 179.917 53.0924 184C36.4254 185.333 19.7594 185.333 3.09241 184C0.674414 182.771 -0.325586 180.771 0.092414 178C-0.235586 174.999 0.764414 172.666 3.09241 171Z" fill="white"/>
<path fill-rule="evenodd" clip-rule="evenodd" d="M305.092 171C321.762 170.833 338.429 171 355.092 171.5C359.068 175.748 359.068 179.915 355.092 184C338.425 185.333 321.759 185.333 305.092 184C301.158 179.749 301.158 175.415 305.092 171Z" fill="white"/>
<path fill-rule="evenodd" clip-rule="evenodd" d="M133.092 177C143.742 174.877 152.076 178.21 158.092 187C158.901 188.571 159.235 190.238 159.092 192C150.173 192.578 141.506 191.412 133.092 188.5C131.92 186.503 130.587 184.67 129.092 183C130.157 180.735 131.491 178.735 133.092 177Z" fill="white"/>
<path fill-rule="evenodd" clip-rule="evenodd" d="M212.092 177C216.106 176.834 220.106 177.001 224.092 177.5C229.449 179.908 230.283 183.408 226.592 188C218.118 191.383 209.284 192.716 200.092 192C199.807 190.212 200.14 188.545 201.092 187C204.182 182.968 207.849 179.635 212.092 177Z" fill="white"/>
<path fill-rule="evenodd" clip-rule="evenodd" d="M173.092 201C177.438 200.834 181.771 201.001 186.092 201.5C187.341 203.71 187.174 205.876 185.592 208C185.092 238.665 184.925 269.332 185.092 300C181.092 300 177.092 300 173.092 300C173.092 267 173.092 234 173.092 201Z" fill="white"/>
<path fill-rule="evenodd" clip-rule="evenodd" d="M125.092 309C161.094 308.833 197.094 309 233.092 309.5C236.871 311.236 239.537 314.069 241.092 318C242.712 324.15 242.045 329.983 239.092 335.5C237.246 337.592 234.913 338.926 232.092 339.5C196.759 340.167 161.425 340.167 126.092 339.5C118.616 337.524 115.283 332.691 116.092 325C115.44 317.489 118.44 312.156 125.092 309Z" fill="white"/>
<path fill-rule="evenodd" clip-rule="evenodd" d="M138.092 350C165.425 350 192.759 350 220.092 350C220.152 354.76 218.819 359.094 216.092 363C202.876 381.032 185.21 386.865 163.092 380.5C149.155 374.879 140.821 364.713 138.092 350Z" fill="white"/>
<path fill-rule="evenodd" clip-rule="evenodd" d="M173.092 401C179.517 400.63 185.85 401.13 192.092 402.5C195.522 404.89 198.022 408.057 199.592 412C200.092 449.665 200.259 487.332 200.092 525C197.832 524.361 195.832 523.194 194.092 521.5C183.759 511 173.425 500.5 163.092 490C161.759 464 161.759 438 163.092 412C165.115 406.984 168.448 403.318 173.092 401Z" fill="white"/>
<path fill-rule="evenodd" clip-rule="evenodd" d="M126.092 480C132.143 479.302 137.81 480.302 143.092 483C161.452 500.694 179.452 518.694 197.092 537C201.861 546.518 200.861 555.351 194.092 563.5C185.425 568.167 176.759 568.167 168.092 563.5C151.259 546 134.092 528.833 116.592 512C109.941 498.038 113.108 487.371 126.092 480Z" fill="white"/>
<path fill-rule="evenodd" clip-rule="evenodd" d="M96.0924 514C102.765 513.681 108.432 515.847 113.092 520.5C129.259 537.333 145.759 553.833 162.592 570C167.259 578.333 167.259 586.667 162.592 595C154.187 602.712 145.02 603.712 135.092 598C117.934 581.043 100.767 564.043 83.5924 547C81.1264 542.787 79.2934 538.287 78.0924 533.5C79.8404 522.924 85.8404 516.424 96.0924 514Z" fill="white"/>
<path fill-rule="evenodd" clip-rule="evenodd" d="M58.0924 549C65.3754 547.989 72.0424 549.489 78.0924 553.5C93.5924 570.333 109.759 586.5 126.592 602C132.753 612.012 132.586 621.845 126.092 631.5C122.066 634.374 117.566 635.54 112.592 635C107.875 635.585 103.708 634.419 100.092 631.5C83.2064 614.57 66.2064 597.736 49.0924 581C41.3324 567.007 44.3324 556.34 58.0924 549Z" fill="white"/>
<path fill-rule="evenodd" clip-rule="evenodd" d="M251.092 645C208.425 645 165.759 645 123.092 645C125.52 643.09 128.187 641.257 131.092 639.5C139.556 631.952 143.223 622.452 142.092 611C155.506 612.125 165.84 607.125 173.092 596C178.284 596.121 183.117 597.788 187.592 601C187.925 602 188.259 603 188.592 604C188.759 616.014 189.259 628.014 190.092 640C192.933 643.6 195.599 643.6 198.092 640C199.425 626.667 199.425 613.333 198.092 600C195.482 597.01 192.815 594.01 190.092 591C185.882 588.728 181.549 586.728 177.092 585C176.218 582.753 175.884 580.42 176.092 578C193.48 578.239 204.98 570.239 210.592 554C218.857 557.702 227.357 561.036 236.092 564C237.343 565.131 238.343 566.464 239.092 568C244.208 589.247 248.541 610.58 252.092 632C251.51 636.318 251.177 640.651 251.092 645Z" fill="white"/>
<path fill-rule="evenodd" clip-rule="evenodd" d="M102.092 645C84.4254 645 66.7594 645 49.0924 645C48.7594 628.32 49.0934 611.653 50.0924 595C67.1964 612.108 84.5304 628.775 102.092 645Z" fill="white"/>
</g>
</svg>
