<svg width="107" height="130" viewBox="0 0 107 130" fill="none" xmlns="http://www.w3.org/2000/svg">
<path d="M106.53 121.762H2.0791V129.998H106.53V121.762Z" fill="white"/>
<path d="M98.8797 55.293H90.0615V118.429H98.8797V55.293Z" fill="white"/>
<path d="M82.415 64.0195H73.5918V118.429H82.415V64.0195Z" fill="white"/>
<path d="M65.9451 72.3555H57.1221V118.429H65.9451V72.3555Z" fill="white"/>
<path d="M49.4755 86.8594H40.6523V118.427H49.4755V86.8594Z" fill="white"/>
<path d="M32.9951 96.2773H24.1719V118.43H32.9951V96.2773Z" fill="white"/>
<path d="M16.53 102.941H7.71191V118.43H16.53V102.941Z" fill="white"/>
<path d="M81.3545 32.355L93.415 37.0599L85.7674 0L52.8258 22.3512L64.8838 27.6476C44.0051 78.233 0.470703 99.8048 0.470703 99.8048C65.1808 78.4311 81.3545 32.355 81.3545 32.355Z" fill="white"/>
</svg>
