<svg width="117" height="88" viewBox="0 0 117 88" fill="none" xmlns="http://www.w3.org/2000/svg">
<path d="M117 73.3329C117 75.9052 116.279 78.2897 115.123 80.3878L78.1811 38.9375L114.722 6.87613C116.144 9.13835 117 11.7957 117 14.6673V73.3329ZM58.5001 46.4637L109.346 1.84798C107.259 0.702485 104.91 0 102.375 0H14.6249C12.0872 0 9.73692 0.702485 7.65884 1.84798L58.5001 46.4637ZM72.6756 43.7645L60.9061 54.0984C60.2177 54.6998 59.3605 55.0001 58.5001 55.0001C57.6393 55.0001 56.7821 54.6998 56.0936 54.0984L44.3215 43.764L6.91254 85.7441C9.15483 87.1548 11.7827 88 14.6247 88H102.375C105.217 88 107.846 87.1548 110.087 85.7441L72.6756 43.7645ZM2.27822 6.87589C0.856984 9.13811 0 11.7955 0 14.6673V73.3332C0 75.9054 0.718092 78.29 1.87818 80.388L38.8155 38.9305L2.27822 6.87589Z" fill="#006EB9"/>
</svg>
