<svg width="28" height="28" viewBox="0 0 28 28" fill="none" xmlns="http://www.w3.org/2000/svg">
<mask id="mask0_324_37" style="mask-type:alpha" maskUnits="userSpaceOnUse" x="0" y="0" width="28" height="28">
<rect width="28" height="28" fill="#D9D9D9"/>
</mask>
<g mask="url(#mask0_324_37)">
<path d="M14 14.0002C14.6416 14.0002 15.1909 13.7717 15.6479 13.3147C16.1048 12.8578 16.3333 12.3085 16.3333 11.6668C16.3333 11.0252 16.1048 10.4759 15.6479 10.0189C15.1909 9.56197 14.6416 9.3335 14 9.3335C13.3583 9.3335 12.809 9.56197 12.352 10.0189C11.8951 10.4759 11.6666 11.0252 11.6666 11.6668C11.6666 12.3085 11.8951 12.8578 12.352 13.3147C12.809 13.7717 13.3583 14.0002 14 14.0002ZM14 22.5752C16.3722 20.3974 18.1319 18.4189 19.2791 16.6397C20.4263 14.8606 21 13.2807 21 11.9002C21 9.78072 20.3243 8.0453 18.9729 6.69391C17.6215 5.34252 15.9638 4.66683 14 4.66683C12.0361 4.66683 10.3784 5.34252 9.02704 6.69391C7.67565 8.0453 6.99996 9.78072 6.99996 11.9002C6.99996 13.2807 7.57357 14.8606 8.72079 16.6397C9.86801 18.4189 11.6277 20.3974 14 22.5752ZM14 25.6668C10.8694 23.0029 8.53121 20.5286 6.98538 18.2439C5.43954 15.9592 4.66663 13.8446 4.66663 11.9002C4.66663 8.9835 5.60482 6.65988 7.48121 4.92933C9.3576 3.19877 11.5305 2.3335 14 2.3335C16.4694 2.3335 18.6423 3.19877 20.5187 4.92933C22.3951 6.65988 23.3333 8.9835 23.3333 11.9002C23.3333 13.8446 22.5604 15.9592 21.0145 18.2439C19.4687 20.5286 17.1305 23.0029 14 25.6668Z" fill="black"/>
</g>
</svg>
