<svg width="220" height="227" viewBox="0 0 220 227" fill="none" xmlns="http://www.w3.org/2000/svg">
<path d="M87.9083 0C39.3621 0 0 39.3625 0 87.9083C0 136.455 39.3621 175.817 87.9083 175.817C106.576 175.817 123.889 169.994 138.119 160.076L204.599 226.545C205.199 227.145 206.171 227.145 206.74 226.586L219.264 214.062C219.843 213.483 219.792 212.49 219.223 211.921L153.612 146.31C167.429 130.787 175.816 110.33 175.816 87.908C175.817 39.3625 136.455 0 87.9083 0ZM87.9083 165.475C45.0712 165.475 10.3421 130.745 10.3421 87.9083C10.3421 45.0712 45.0709 10.3424 87.9083 10.3424C130.746 10.3424 165.474 45.0712 165.474 87.9083C165.474 130.745 130.745 165.475 87.9083 165.475Z" fill="white"/>
</svg>
