<svg width="21" height="26" viewBox="0 0 21 26" fill="none" xmlns="http://www.w3.org/2000/svg">
<path d="M10.9289 13.429C11.6164 13.429 12.205 13.1842 12.6946 12.6946C13.1841 12.205 13.4289 11.6165 13.4289 10.929C13.4289 10.2415 13.1841 9.65291 12.6946 9.16333C12.205 8.67375 11.6164 8.42895 10.9289 8.42895C10.2414 8.42895 9.65289 8.67375 9.16331 9.16333C8.67373 9.65291 8.42893 10.2415 8.42893 10.929C8.42893 11.6165 8.67373 12.205 9.16331 12.6946C9.65289 13.1842 10.2414 13.429 10.9289 13.429ZM10.9289 22.6165C13.4706 20.2831 15.356 18.1633 16.5852 16.2571C17.8144 14.3508 18.4289 12.6581 18.4289 11.179C18.4289 8.90812 17.705 7.04875 16.2571 5.60083C14.8091 4.15291 13.0331 3.42895 10.9289 3.42895C8.82477 3.42895 7.04873 4.15291 5.60081 5.60083C4.15289 7.04875 3.42893 8.90812 3.42893 11.179C3.42893 12.6581 4.04352 14.3508 5.27268 16.2571C6.50185 18.1633 8.38727 20.2831 10.9289 22.6165ZM10.9289 25.929C7.57477 23.0748 5.06956 20.4237 3.41331 17.9758C1.75706 15.5279 0.928934 13.2623 0.928934 11.179C0.928934 8.05395 1.93414 5.56437 3.94456 3.71021C5.95498 1.85604 8.2831 0.928955 10.9289 0.928955C13.5748 0.928955 15.9029 1.85604 17.9133 3.71021C19.9237 5.56437 20.9289 8.05395 20.9289 11.179C20.9289 13.2623 20.1008 15.5279 18.4446 17.9758C16.7883 20.4237 14.2831 23.0748 10.9289 25.929Z" fill="#fff"/>
</svg>
