<svg width="22" height="22" viewBox="0 0 22 22" fill="none" xmlns="http://www.w3.org/2000/svg">
<path fill-rule="evenodd" clip-rule="evenodd" d="M4.4 9.53333C6.11111 12.9556 9.04444 15.7667 12.4667 17.6L15.1556 14.9111C15.5222 14.5444 16.0111 14.4222 16.3778 14.6667C17.7222 15.1556 19.1889 15.4 20.7778 15.4C21.5111 15.4 22 15.8889 22 16.6222V20.7778C22 21.5111 21.5111 22 20.7778 22C9.28889 22 0 12.7111 0 1.22222C0 0.488889 0.488889 0 1.22222 0H5.5C6.23333 0 6.72222 0.488889 6.72222 1.22222C6.72222 2.68889 6.96667 4.15556 7.45556 5.62222C7.57778 5.98889 7.45556 6.47778 7.21111 6.84444L4.4 9.53333Z" fill="white"/>
</svg>
