<svg width="119" height="99" viewBox="0 0 119 99" fill="none" xmlns="http://www.w3.org/2000/svg">
<path d="M118 34.5C118 53.5538 102.554 69 83.5 69C64.4462 69 49 53.5538 49 34.5C49 15.4462 64.4462 0 83.5 0C102.554 0 118 15.4462 118 34.5ZM59.7485 34.5C59.7485 47.6176 70.3824 58.2515 83.5 58.2515C96.6176 58.2515 107.252 47.6176 107.252 34.5C107.252 21.3824 96.6176 10.7485 83.5 10.7485C70.3824 10.7485 59.7485 21.3824 59.7485 34.5Z" fill="white"/>
<path d="M99.2826 76.9454C98.022 74.5263 98.9611 71.5432 101.38 70.2826C103.799 69.0219 106.782 69.9611 108.043 72.3802L117.681 90.8744C118.941 93.2935 118.002 96.2766 115.583 97.5372C113.164 98.7979 110.181 97.8587 108.92 95.4396L99.2826 76.9454Z" fill="white"/>
<path d="M5 10C2.23857 10 0 7.76142 0 5C0 2.23858 2.23858 0 5 0H55.5C51.6271 3.3237 49.5399 5.58991 46.6495 10H5Z" fill="white"/>
<path d="M5 58C2.23857 58 0 60.2386 0 63C0 65.7614 2.23858 68 5 68H55.5C51.6271 64.6763 49.5399 62.4101 46.6495 58H5Z" fill="white"/>
<path d="M4.96836 39C2.22441 39 0 36.7756 0 34.0316C0 31.2631 2.26292 29.0286 5.03124 29.0637L39.5 29.5C39 33.5 39 35 39.2041 39H4.96836Z" fill="white"/>
<path d="M0 92C0 89.2386 2.23858 87 5 87H93C95.7614 87 98 89.2386 98 92C98 94.7614 95.7614 97 93 97H5C2.23857 97 0 94.7614 0 92Z" fill="white"/>
</svg>
