<svg width="161" height="161" viewBox="0 0 161 161" fill="none" xmlns="http://www.w3.org/2000/svg">
<path d="M151.056 160.375C131.975 160.375 113.374 156.122 95.2547 147.617C77.1349 139.112 61.0859 127.87 47.1078 113.892C33.1297 99.9141 21.888 83.8651 13.3828 65.7453C4.8776 47.6255 0.625 29.025 0.625 9.94375C0.625 7.28125 1.5125 5.0625 3.2875 3.2875C5.0625 1.5125 7.28125 0.625 9.94375 0.625H45.8875C47.9583 0.625 49.8073 1.29063 51.4344 2.62188C53.0615 3.95313 54.0229 5.65417 54.3188 7.725L60.0875 38.7875C60.3833 40.8583 60.3464 42.7443 59.9766 44.4453C59.6068 46.1464 58.7563 47.6625 57.425 48.9938L35.9031 70.7375C42.1156 81.3875 49.9182 91.3719 59.3109 100.691C68.7036 110.009 79.0208 118.071 90.2625 124.875L111.119 104.019C112.45 102.688 114.188 101.689 116.333 101.023C118.478 100.358 120.585 100.173 122.656 100.469L153.275 106.681C155.346 107.125 157.047 108.123 158.378 109.677C159.709 111.23 160.375 113.042 160.375 115.113V151.056C160.375 153.719 159.488 155.938 157.713 157.713C155.938 159.488 153.719 160.375 151.056 160.375ZM27.4719 53.875L42.1156 39.2313L38.3438 18.375H18.5969C19.3365 24.4396 20.3719 30.4302 21.7031 36.3469C23.0344 42.2635 24.9573 48.1063 27.4719 53.875ZM106.903 133.306C112.672 135.821 118.552 137.818 124.542 139.297C130.533 140.776 136.56 141.738 142.625 142.181V122.656L121.769 118.441L106.903 133.306Z" fill="black"/>
</svg>
