<svg width="19" height="20" viewBox="0 0 19 20" fill="none" xmlns="http://www.w3.org/2000/svg">
<path d="M18.2404 14.1002V16.6002C18.2414 16.8323 18.1938 17.062 18.1008 17.2747C18.0079 17.4873 17.8716 17.6782 17.7004 17.835C17.5294 17.9919 17.3276 18.1114 17.1077 18.1858C16.8878 18.2602 16.6549 18.2878 16.4238 18.2668C13.8594 17.9882 11.3963 17.1119 9.23209 15.7085C7.21862 14.429 5.51154 12.722 4.23209 10.7085C2.82374 8.5345 1.94729 6.05933 1.67376 3.48349C1.65293 3.25305 1.68032 3.02079 1.75418 2.80152C1.82803 2.58223 1.94673 2.38073 2.10273 2.20984C2.25873 2.03895 2.44859 1.90242 2.66026 1.80893C2.87191 1.71544 3.10071 1.66704 3.33209 1.66683H5.83209C6.23652 1.66284 6.62858 1.80605 6.93523 2.06977C7.24187 2.33348 7.44216 2.6997 7.49876 3.10017C7.60428 3.90022 7.79997 4.68577 8.08209 5.44183C8.19422 5.74009 8.21848 6.06425 8.15202 6.37589C8.08556 6.68753 7.93114 6.97359 7.70709 7.20017L6.64876 8.25849C7.83506 10.3448 9.56247 12.0722 11.6488 13.2585L12.7071 12.2002C12.9337 11.9761 13.2197 11.8217 13.5313 11.7552C13.8431 11.6888 14.1672 11.713 14.4654 11.8252C15.2214 12.1073 16.0071 12.303 16.8071 12.4085C17.2119 12.4656 17.5816 12.6695 17.8459 12.9814C18.1102 13.2933 18.2506 13.6915 18.2404 14.1002Z" stroke="white" stroke-width="1.5" stroke-linecap="round" stroke-linejoin="round"/>
</svg>
