<svg width="22" height="21" viewBox="0 0 22 21" fill="none" xmlns="http://www.w3.org/2000/svg">
<path d="M20.9994 15.2251V18.0854C21.0006 18.351 20.9431 18.6138 20.8309 18.8571C20.7188 19.1004 20.5543 19.3187 20.3478 19.4982C20.1414 19.6777 19.8978 19.8144 19.6325 19.8995C19.3672 19.9846 19.0861 20.0162 18.8072 19.9922C15.7128 19.6734 12.7404 18.6709 10.1289 17.0653C7.69922 15.6014 5.63927 13.6484 4.09534 11.3447C2.39587 8.85744 1.33824 6.02558 1.00816 3.07855C0.983032 2.8149 1.01608 2.54917 1.10521 2.2983C1.19433 2.04741 1.33756 1.81687 1.52581 1.62136C1.71406 1.42584 1.94317 1.26963 2.19858 1.16267C2.45399 1.05571 2.73008 1.00034 3.0093 1.00009H6.02608C6.51411 0.995531 6.98721 1.15938 7.35725 1.4611C7.72728 1.76281 7.96897 2.18181 8.03726 2.63998C8.1646 3.55532 8.40074 4.45408 8.74119 5.31909C8.87649 5.66034 8.90577 6.03121 8.82556 6.38776C8.74536 6.74431 8.55903 7.07159 8.28867 7.33082L7.01156 8.54165C8.44308 10.9286 10.5276 12.9049 13.0451 14.2622L14.3222 13.0513C14.5957 12.795 14.9408 12.6183 15.3168 12.5423C15.693 12.4663 16.0841 12.494 16.444 12.6223C17.3563 12.9451 18.3043 13.169 19.2697 13.2897C19.7583 13.355 20.2043 13.5883 20.5233 13.9452C20.8422 14.302 21.0116 14.7576 20.9994 15.2251Z" fill="black" stroke="#2B2A29" stroke-linecap="round" stroke-linejoin="round"/>
</svg>
