<svg width="73" height="66" viewBox="0 0 73 66" fill="none" xmlns="http://www.w3.org/2000/svg">
<path d="M66.7992 0.00600398C65.7444 0.0520548 64.7763 0.356533 63.9259 0.69292C63.1403 1.00344 60.319 2.1935 55.8265 4.08457C51.334 5.97563 45.381 8.48295 39.0357 11.1612C26.3452 16.5178 12.0843 22.5433 4.77698 25.6294C4.52604 25.7343 3.50693 26.0474 2.38136 26.9102C1.25318 27.775 0 29.6518 0 31.7043C0 33.3601 0.823596 35.0464 1.8181 36.0118C2.81261 36.9773 3.82052 37.4287 4.6629 37.7649C7.12729 38.7498 14.7427 41.802 18.0527 43.1314C19.2122 46.6189 21.9357 54.8336 22.573 56.8554H22.5659C23.0843 58.5011 23.5896 59.5736 24.2913 60.4689C24.6421 60.9165 25.0609 61.3221 25.5746 61.6424C25.7718 61.7653 25.99 61.8606 26.2092 61.9501C26.2397 61.9631 26.2712 61.9663 26.3019 61.9787L26.2163 61.9572C26.2799 61.9829 26.3369 62.0207 26.4017 62.0431C26.5073 62.0796 26.5804 62.0784 26.7225 62.1075C27.2227 62.2619 27.7219 62.3651 28.1842 62.3651C30.1686 62.3651 31.3854 61.2846 31.3854 61.2846L31.4639 61.2274L40.0339 53.9504L50.529 63.6888C50.7167 63.955 52.2172 66 55.6981 66C57.772 66 59.4189 64.9769 60.468 63.8963C61.517 62.8157 62.1705 61.71 62.4643 60.2113V60.197V60.1898C62.6683 59.126 72.7455 8.36348 72.7455 8.36348L72.7241 8.44934C73.037 7.04861 73.1292 5.69399 72.7598 4.31354C72.3904 2.93309 71.3935 1.58591 70.193 0.878959C68.9926 0.172008 67.8541 -0.0400483 66.7992 0.00600398ZM65.359 8.02718C64.9631 10.0216 55.9954 55.2362 55.4129 58.2364L44.9891 48.5695C42.3023 46.0765 38.1126 45.9888 35.3211 48.3549L30.0023 52.8699L32.8399 41.7361C32.8399 41.7361 52.4157 21.8499 53.5948 20.6922C54.5439 19.7653 54.7427 19.4404 54.7427 19.118C54.7427 18.6894 54.5229 18.381 54.0155 18.381C53.5592 18.381 52.9394 18.8198 52.6109 19.025C48.4183 21.6482 30.4676 31.915 21.7745 36.8776C21.4479 36.6814 21.1267 36.4777 20.7692 36.3338C17.9167 35.1881 12.4343 32.9823 9.22598 31.6971C16.798 28.4989 29.7778 23.0184 41.8663 17.9159C48.2105 15.2381 54.1617 12.7285 58.6499 10.8392C62.4385 9.24446 64.4148 8.41872 65.359 8.02718ZM55.2988 58.7659H55.306L55.2988 58.7945C55.305 58.7633 55.2946 58.7885 55.2988 58.7659Z" fill="white"/>
</svg>
