<svg width="34" height="17" viewBox="0 0 34 17" fill="none" xmlns="http://www.w3.org/2000/svg">
<path d="M24.8221 8.54605C24.8221 13.1202 21.4821 15.9733 16.908 15.9733C12.3338 15.9733 8.99387 13.1202 8.99387 8.54605C8.99387 3.97189 12.3338 1.00013 16.908 1.00013C21.4821 1.00013 24.8221 3.97189 24.8221 8.54605Z" stroke="#969696" stroke-width="2"/>
<path d="M19.3006 8.54605C19.3006 9.86748 18.2294 10.9387 16.908 10.9387C15.5866 10.9387 14.5153 9.86748 14.5153 8.54605C14.5153 7.22463 15.5866 6.1534 16.908 6.1534C18.2294 6.1534 19.3006 7.22463 19.3006 8.54605Z" stroke="#969696" stroke-width="2"/>
<path d="M2 8.5804C13.3942 -1.28508 19.9598 -1.70254 32 8.39605C19.9598 18.4946 13.3942 18.4459 2 8.5804Z" stroke="#969696" stroke-width="2"/>
</svg>
