<svg width="120" height="69" viewBox="0 0 120 69" fill="none" xmlns="http://www.w3.org/2000/svg">
<path d="M119.364 61.8317C119.218 61.5185 119.083 61.2587 118.957 61.0506C116.875 57.3009 112.896 52.6984 107.024 47.2417L106.899 47.1168L106.837 47.0555L106.774 46.9927H106.711C104.046 44.4518 102.358 42.7434 101.651 41.8687C100.358 40.2025 100.068 38.5159 100.775 36.807C101.274 35.5159 103.15 32.7892 106.398 28.6233C108.107 26.4154 109.46 24.646 110.459 23.3128C117.665 13.7322 120.79 7.61011 119.831 4.94405L119.459 4.32103C119.209 3.94595 118.563 3.60281 117.523 3.28988C116.481 2.9776 115.148 2.92596 113.523 3.13407L95.5299 3.25837C95.2384 3.15508 94.8222 3.1647 94.2799 3.28988C93.7383 3.41505 93.4674 3.47786 93.4674 3.47786L93.1542 3.63432L92.9056 3.8223C92.6973 3.9466 92.4682 4.16522 92.218 4.47771C91.9692 4.78912 91.7611 5.15457 91.5948 5.57101C89.6358 10.611 87.4085 15.2969 84.9087 19.6285C83.3675 22.2114 81.952 24.4499 80.6594 26.3452C79.3685 28.2399 78.2855 29.6358 77.4114 30.5306C76.5361 31.4263 75.7461 32.1439 75.0367 32.6859C74.3283 33.2282 73.7875 33.4573 73.4131 33.3735C73.0378 33.2897 72.6844 33.2065 72.3498 33.1234C71.7671 32.7483 71.2983 32.2382 70.9449 31.5926C70.5899 30.9471 70.351 30.1345 70.226 29.1557C70.1017 28.1762 70.0282 27.3337 70.0072 26.6253C69.9877 25.9178 69.9967 24.9171 70.0389 23.626C70.0822 22.3342 70.1017 21.4602 70.1017 21.0019C70.1017 19.4189 70.1326 17.7008 70.1945 15.8473C70.2575 13.9937 70.3085 12.5251 70.3512 11.4432C70.3936 10.3602 70.4133 9.21439 70.4133 8.00642C70.4133 6.79846 70.3398 5.85112 70.1945 5.16354C70.0509 4.47684 69.8306 3.81027 69.5402 3.16405C69.248 2.51849 68.8204 2.01911 68.2593 1.66459C67.6972 1.31052 66.9982 1.02953 66.1664 0.820766C63.9586 0.321167 61.1472 0.0509062 57.731 0.0088899C49.984 -0.0742673 45.0062 0.425988 42.7986 1.509C41.9239 1.96658 41.1324 2.59179 40.4247 3.38266C39.6747 4.29936 39.5701 4.79962 40.1115 4.8819C42.611 5.25633 44.3805 6.15202 45.422 7.5681L45.7973 8.31848C46.0892 8.85988 46.3807 9.81837 46.6724 11.1927C46.9637 12.5669 47.1516 14.0872 47.2344 15.7525C47.4423 18.7937 47.4423 21.3969 47.2344 23.5625C47.0258 25.729 46.8289 27.4155 46.6409 28.6235C46.4529 29.8315 46.1719 30.8103 45.7973 31.5598C45.422 32.3095 45.1723 32.7678 45.0471 32.9341C44.9222 33.1004 44.818 33.2052 44.7353 33.2464C44.1939 33.4538 43.6308 33.5595 43.0481 33.5595C42.4644 33.5595 41.7567 33.2676 40.9238 32.6842C40.0912 32.1008 39.227 31.2994 38.3313 30.2788C37.4356 29.2579 36.4255 27.8313 35.3004 25.9988C34.1763 24.1663 33.0099 22.0005 31.8019 19.5014L30.8025 17.689C30.1777 16.523 29.3243 14.8253 28.2413 12.5974C27.1576 10.3685 26.1998 8.21256 25.3671 6.12991C25.0342 5.25523 24.5342 4.58932 23.8679 4.13108L23.5551 3.9431C23.3473 3.77678 23.0135 3.60018 22.5557 3.41199C22.0973 3.22401 21.6189 3.0892 21.1186 3.00627L3.99942 3.13057C2.25006 3.13057 1.0631 3.52687 0.438107 4.3184L0.187979 4.69283C0.0630244 4.90137 0 5.23444 0 5.6929C0 6.15114 0.124955 6.71355 0.375083 7.37946C2.87417 13.253 5.59188 18.9175 8.52821 24.3739C11.4645 29.8304 14.0161 34.2257 16.1815 37.5559C18.3473 40.8885 20.5549 44.0338 22.8043 46.9903C25.0537 49.9478 26.5427 51.8432 27.2712 52.6758C28.0006 53.51 28.5735 54.1337 28.9899 54.5501L30.5522 56.0494C31.5518 57.0492 33.0197 58.2467 34.9566 59.6418C36.894 61.0377 39.0388 62.412 41.3921 63.7668C43.7459 65.1194 46.4842 66.2232 49.6085 67.0769C52.7324 67.9314 55.7729 68.2744 58.7304 68.1089H65.9156C67.3728 67.9831 68.4769 67.5249 69.2273 66.734L69.4758 66.4208C69.643 66.1722 69.7995 65.786 69.9439 65.2663C70.0901 64.7457 70.1628 64.1721 70.1628 63.5482C70.1201 61.7575 70.2564 60.1436 70.568 58.7067C70.8794 57.2703 71.2344 56.1872 71.6314 55.4579C72.0281 54.7292 72.4759 54.1142 72.9741 53.6157C73.4735 53.1161 73.8293 52.8135 74.0381 52.7093C74.2456 52.6045 74.4112 52.5334 74.5362 52.4907C75.5358 52.1576 76.7123 52.4802 78.0673 53.4599C79.4212 54.4388 80.6911 55.6474 81.879 57.0838C83.0661 58.5216 84.4925 60.1346 86.1583 61.9253C87.8251 63.7167 89.2826 65.0483 90.5317 65.9243L91.7808 66.674C92.615 67.1743 93.698 67.6325 95.0311 68.049C96.3619 68.4652 97.5278 68.5694 98.529 68.3612L114.523 68.1118C116.105 68.1118 117.336 67.8498 118.209 67.3301C119.084 66.8095 119.604 66.2359 119.771 65.612C119.938 64.9875 119.947 64.2789 119.803 63.4867C119.655 62.6965 119.509 62.1439 119.364 61.8317Z" fill="white"/>
</svg>
