<svg width="331" height="97" viewBox="0 0 331 97" fill="none" xmlns="http://www.w3.org/2000/svg">
<path d="M35.2986 64.8353L32.1769 58.6554L29.0019 64.8109L35.2986 64.8353ZM20.1707 72.329V71.2584L29.4288 54.3003L34.9784 54.3246L44.0765 71.3314V72.4019H39.0872L37.3263 68.8741L26.9208 68.8497L25.1599 72.3533L20.1707 72.329Z" fill="white"/>
<path d="M68.5159 58.7527L55.5492 58.7041L55.4958 72.4506L49.9462 72.4263L50.0263 54.3733L68.5426 54.4463L68.5159 58.7527Z" fill="white"/>
<path d="M89.9138 60.9912C89.9405 59.3854 89.9405 58.2906 85.7783 58.2663C84.471 58.2663 82.1231 58.3392 80.0687 58.4852L80.042 63.3999C81.963 63.6189 83.6172 63.6432 85.5382 63.6676C89.9138 63.6676 89.9138 62.5484 89.9138 60.9912ZM95.4634 61.5265C95.4634 65.103 93.6491 67.9983 87.2458 67.974H86.392C84.1775 67.974 82.0431 67.9497 80.042 67.682L80.0153 72.5237H74.4658L74.5458 54.4464C78.0676 54.1301 82.0964 53.9355 85.8317 53.9598H86.6855C93.5958 53.9841 95.4901 56.9038 95.4634 60.456V61.5265Z" fill="white"/>
<path d="M113.926 68.8741C120.41 68.8984 120.41 66.3924 120.437 63.6431C120.437 60.9181 120.437 58.4121 113.98 58.3878C107.496 58.3634 107.496 60.8694 107.47 63.5944C107.47 66.3437 107.47 68.8497 113.926 68.8741ZM101.947 62.8889C101.947 57.9985 104.482 54.0327 113.446 54.057H114.54C123.505 54.0813 125.986 58.0958 125.986 62.9618L125.959 64.373C125.959 69.239 123.425 73.2292 114.46 73.2049L113.366 73.1805C104.401 73.1562 101.92 69.166 101.92 64.2757L101.947 62.8889Z" fill="white"/>
<path d="M138.099 60.3342C138.099 61.8913 138.099 63.0349 142.475 63.0592C144.369 63.0592 146.05 63.0349 147.944 62.8159L147.971 54.7139L153.52 54.7383L153.467 72.7913L147.917 72.7669L147.944 67.1223C145.916 67.3656 143.809 67.3656 141.594 67.3656H140.714C134.31 67.3413 132.523 64.4217 132.549 60.8695L132.576 54.6653L138.126 54.6896L138.099 60.3342Z" fill="white"/>
<path d="M198.717 69.2633L192.954 62.1589L192.901 72.9372L187.351 72.9129L187.431 54.8599H192.981L200.158 64.1297L207.388 54.9329H212.938L212.858 72.9858H207.335L207.362 62.2076L201.545 69.2633H198.717Z" fill="white"/>
<path d="M241.593 55.0303L241.54 73.1076L235.99 73.0833L236.043 59.3367L225.878 59.288L225.825 73.0346H220.275L220.355 54.9573L241.593 55.0303Z" fill="white"/>
<path d="M265.365 55.1275L270.915 55.1518L270.835 73.2048L265.285 73.1805L265.339 61.5993L254.48 73.1319H248.93L249.01 55.0789H254.56L254.506 66.6844L265.365 55.1275Z" fill="white"/>
<path d="M289.965 69.4825C296.422 69.5068 296.448 67.0008 296.448 64.2515C296.475 61.5508 296.475 59.0448 289.992 59.0205C283.535 58.9962 283.508 61.5022 283.508 64.2272C283.508 66.9765 283.482 69.4825 289.965 69.4825ZM277.959 63.4972C277.985 58.6069 280.493 54.6411 289.458 54.6654H290.579C299.543 54.7141 302.025 58.7042 301.998 63.5702V64.9814C301.971 69.8718 299.463 73.8376 290.499 73.8132H289.378C280.413 73.7646 277.932 69.7744 277.959 64.9084V63.4972Z" fill="white"/>
<path d="M314.671 55.298L314.645 62.3051L325.424 62.3294L325.45 55.3223L331 55.3467L330.92 73.3997H325.397L325.424 66.6602L314.618 66.6115L314.591 73.351L309.042 73.3267L309.122 55.2737L314.671 55.298Z" fill="white"/>
<path d="M180.601 72.8887L180.628 68.5822L166.407 68.5336L166.434 66.1005L177.559 66.1249V61.8184L166.434 61.7941L160.884 61.7698L160.857 72.8157L180.601 72.8887Z" fill="white"/>
<path d="M180.654 59.1421L180.681 54.8357L160.937 54.7627L160.911 59.0691L166.46 59.0935L180.654 59.1421Z" fill="#E62E39"/>
<path d="M86.072 28.121C84.4978 20.1651 82.6035 13.6446 80.4157 8.68122C81.4829 8.19462 82.3367 7.51338 82.6302 6.51584C83.5907 3.06095 77.9344 2.64734 75.4264 2.16074C71.1842 1.33351 66.8886 0.725255 62.5397 0.360302C54.7223 -0.272283 46.8248 -0.0533108 39.034 0.871236C35.5656 1.30918 23.1858 2.37971 27.3479 7.90266C27.6948 8.36493 28.1217 8.70555 28.682 8.94886L23.1591 29.1429C20.2776 30.8217 17.3961 32.4761 14.5146 34.1549C12.2467 35.4688 9.97885 36.7826 7.711 38.1207C5.20302 39.5562 0.72068 41.6243 1.5211 44.5196C2.42824 47.8042 6.27025 46.539 8.27129 46.0524C7.63096 46.758 7.20407 47.3176 6.96394 47.7312C2.53496 52.9622 0.026984 59.3367 0.000303385 66.0031C-0.0797385 83.0343 15.6885 96.9268 35.1654 96.9998C42.716 97.0241 49.7063 94.956 55.4693 91.4525L55.496 86.2215C50.0531 90.382 42.9561 92.9123 35.192 92.888C18.3032 92.815 4.64273 80.7716 4.69609 66.0275C4.72277 57.6579 9.25848 49.7992 16.8358 44.7872C18.7034 43.1571 31.5101 35.8094 31.5101 35.8094L16.8358 39.4102C16.7824 39.4102 15.4751 39.7509 12.8604 40.3834L27.5881 31.8436L34.6051 6.12656C47.225 3.66921 60.3519 3.71787 73.7989 6.3212L74.7861 8.26761C77.4275 13.4743 79.6686 20.968 81.4562 30.6027L81.8031 32.3788L83.8575 32.4275C118.356 31.4786 161.925 40.6511 161.925 40.6511C142.928 33.644 103.148 28.705 86.072 28.121Z" fill="#E62E39"/>
</svg>
