<svg width="170" height="51" viewBox="0 0 170 51" fill="none" xmlns="http://www.w3.org/2000/svg">
<path d="M18.1292 33.4907L16.526 30.2985L14.8953 33.4781L18.1292 33.4907ZM10.3596 37.3615V36.8085L15.1146 28.0488L17.9648 28.0614L22.6375 36.8462V37.3992H20.0751L19.1707 35.5769L13.8265 35.5643L12.9221 37.3741L10.3596 37.3615Z" fill="#2B2A29"/>
<path d="M35.1895 30.3486L28.5299 30.3235L28.5025 37.4243L25.6522 37.4117L25.6933 28.0864L35.2032 28.1241L35.1895 30.3486Z" fill="#2B2A29"/>
<path d="M46.1794 31.505C46.1931 30.6755 46.1931 30.1099 44.0554 30.0974C43.3839 30.0974 42.1781 30.1351 41.1229 30.2105L41.1092 32.7492C42.0959 32.8623 42.9454 32.8748 43.9321 32.8874C46.1794 32.8874 46.1794 32.3093 46.1794 31.505ZM49.0296 31.7814C49.0296 33.6289 48.0978 35.1245 44.8091 35.1119H44.3706C43.2332 35.1119 42.137 35.0993 41.1092 34.9611L41.0955 37.4621H38.2453L38.2864 28.1242C40.0952 27.9609 42.1644 27.8603 44.0828 27.8729H44.5213C48.0704 27.8854 49.0433 29.3936 49.0296 31.2285V31.7814Z" fill="#2B2A29"/>
<path d="M58.5121 35.5769C61.842 35.5895 61.842 34.295 61.8557 32.8748C61.8557 31.4673 61.8557 30.1728 58.5395 30.1602C55.2097 30.1476 55.2097 31.4421 55.196 32.8497C55.196 34.2699 55.196 35.5643 58.5121 35.5769ZM52.3595 32.4852C52.3595 29.9591 53.6613 27.9106 58.2655 27.9232H58.8273C63.4315 27.9357 64.7059 30.0094 64.7059 32.5229L64.6922 33.2519C64.6922 35.7654 63.3904 37.8265 58.7862 37.814L58.2244 37.8014C53.6201 37.7888 52.3458 35.7277 52.3458 33.2016L52.3595 32.4852Z" fill="#2B2A29"/>
<path d="M70.927 31.1656C70.927 31.9699 70.927 32.5606 73.1743 32.5732C74.1473 32.5732 75.0105 32.5606 75.9835 32.4475L75.9972 28.2624L78.8474 28.275L78.82 37.6003L75.9698 37.5877L75.9835 34.672C74.942 34.7977 73.8595 34.7977 72.7221 34.7977H72.2699C68.9812 34.7851 68.0631 33.277 68.0768 31.4421L68.0905 28.2373L70.9407 28.2499L70.927 31.1656Z" fill="#2B2A29"/>
<path d="M102.06 35.778L99.1005 32.1082L99.0731 37.6757L96.2228 37.6632L96.2639 28.3379H99.1142L102.8 33.1262L106.514 28.3756H109.364L109.323 37.7009H106.486L106.5 32.1333L103.513 35.778H102.06Z" fill="#2B2A29"/>
<path d="M124.081 28.4259L124.054 37.7637L121.203 37.7511L121.231 30.6504L116.01 30.6252L115.983 37.726H113.132L113.173 28.3882L124.081 28.4259Z" fill="#2B2A29"/>
<path d="M136.291 28.4761L139.141 28.4886L139.1 37.8139L136.249 37.8013L136.277 31.8191L130.7 37.7762H127.849L127.891 28.4509H130.741L130.713 34.4457L136.291 28.4761Z" fill="#2B2A29"/>
<path d="M148.925 35.8911C152.241 35.9037 152.255 34.6092 152.255 33.189C152.268 31.794 152.268 30.4996 148.938 30.487C145.622 30.4744 145.609 31.7689 145.609 33.1765C145.609 34.5966 145.595 35.8911 148.925 35.8911ZM142.758 32.7994C142.772 30.2733 144.06 28.2248 148.664 28.2374H149.24C153.844 28.2625 155.118 30.3236 155.105 32.8372V33.5661C155.091 36.0922 153.803 38.1407 149.199 38.1282H148.623C144.019 38.103 142.745 36.0419 142.758 33.5284V32.7994Z" fill="#2B2A29"/>
<path d="M161.614 28.5641L161.6 32.1836L167.136 32.1962L167.15 28.5766L170 28.5892L169.959 37.9145H167.122L167.136 34.4332L161.586 34.4081L161.573 37.8893L158.722 37.8768L158.764 28.5515L161.614 28.5641Z" fill="#2B2A29"/>
<path d="M92.756 37.6504L92.7697 35.4259L85.466 35.4008L85.4797 34.144L91.1938 34.1566V31.9321L85.4797 31.9196L82.6294 31.907L82.6157 37.6127L92.756 37.6504Z" fill="#2B2A29"/>
<path d="M92.7834 30.5498L92.7971 28.3253L82.6569 28.2876L82.6432 30.5121L85.4934 30.5247L92.7834 30.5498Z" fill="#E62E39"/>
<path d="M44.2061 14.5259C43.3977 10.4162 42.4247 7.0481 41.3011 4.48428C41.8492 4.23292 42.2877 3.88103 42.4384 3.36575C42.9318 1.58113 40.0267 1.36748 38.7386 1.11613C36.5598 0.688823 34.3537 0.37463 32.1201 0.186114C28.1051 -0.140647 24.049 -0.0275377 20.0477 0.450036C18.2663 0.676255 11.9081 1.22924 14.0458 4.08211C14.2239 4.3209 14.4432 4.49685 14.7309 4.62252L11.8944 15.0537C10.4145 15.9209 8.93453 16.7755 7.45461 17.6427C6.28985 18.3214 5.12509 19 3.96033 19.6912C2.67225 20.4327 0.370138 21.501 0.781229 22.9965C1.24713 24.6932 3.22037 24.0397 4.2481 23.7883C3.91922 24.1528 3.69998 24.4418 3.57665 24.6555C1.30194 27.3576 0.0138589 30.6503 0.000155817 34.0939C-0.0409533 42.8913 8.05754 50.0674 18.0608 50.1052C21.9387 50.1177 25.5289 49.0495 28.4888 47.2397L28.5025 44.5376C25.707 46.6867 22.062 47.9938 18.0745 47.9812C9.40044 47.9435 2.38448 41.7225 2.41189 34.1064C2.42559 29.7831 4.75511 25.7237 8.64677 23.1348C9.60598 22.2928 16.1834 18.4973 16.1834 18.4973L8.64677 20.3573C8.61936 20.3573 7.94792 20.5333 6.60502 20.86L14.1691 16.4488L17.773 3.16467C24.2545 1.89533 30.9964 1.92046 37.9027 3.26521L38.4098 4.27063C39.7664 6.96012 40.9174 10.831 41.8355 15.8078L42.0137 16.7253L43.0688 16.7504C60.7868 16.2602 83.1639 20.9983 83.1639 20.9983C73.4073 17.3788 52.9761 14.8275 44.2061 14.5259Z" fill="#E62E39"/>
</svg>
